<?xml version="1.0" encoding="UTF-8" standalone="no"?>
<!DOCTYPE svg PUBLIC "-//W3C//DTD SVG 1.1//EN"
 "http://www.w3.org/Graphics/SVG/1.1/DTD/svg11.dtd">
<!-- Generated by graphviz version 2.43.0 (0)
 -->
<!-- Title: dependency&#45;cruiser output Pages: 1 -->
<svg width="782pt" height="450pt"
 viewBox="0.00 0.00 782.00 450.00" xmlns="http://www.w3.org/2000/svg" xmlns:xlink="http://www.w3.org/1999/xlink">
<g id="graph0" class="graph" transform="scale(1 1) rotate(0) translate(4 446)">
<title>dependency&#45;cruiser output</title>
<polygon fill="white" stroke="transparent" points="-4,4 -4,-446 778,-446 778,4 -4,4"/>
<g id="clust1" class="cluster">
<title>cluster_core</title>
<path fill="#ffffff" stroke="black" stroke-width="2" d="M20,-8C20,-8 754,-8 754,-8 760,-8 766,-14 766,-20 766,-20 766,-422 766,-422 766,-428 760,-434 754,-434 754,-434 20,-434 20,-434 14,-434 8,-428 8,-422 8,-422 8,-20 8,-20 8,-14 14,-8 20,-8"/>
<text text-anchor="middle" x="387" y="-422.8" font-family="Helvetica,sans-Serif" font-weight="bold" font-size="9.00">core</text>
</g>
<g id="clust2" class="cluster">
<title>cluster_core/controls</title>
<path fill="#ffffff" stroke="black" stroke-width="2" d="M28,-16C28,-16 271.5,-16 271.5,-16 277.5,-16 283.5,-22 283.5,-28 283.5,-28 283.5,-116 283.5,-116 283.5,-122 277.5,-128 271.5,-128 271.5,-128 28,-128 28,-128 22,-128 16,-122 16,-116 16,-116 16,-28 16,-28 16,-22 22,-16 28,-16"/>
<text text-anchor="middle" x="149.75" y="-116.8" font-family="Helvetica,sans-Serif" font-weight="bold" font-size="9.00">controls</text>
</g>
<g id="clust3" class="cluster">
<title>cluster_core/interaction</title>
<path fill="#ffffff" stroke="black" stroke-width="2" d="M192,-346C192,-346 252,-346 252,-346 258,-346 264,-352 264,-358 264,-358 264,-386 264,-386 264,-392 258,-398 252,-398 252,-398 192,-398 192,-398 186,-398 180,-392 180,-386 180,-386 180,-358 180,-358 180,-352 186,-346 192,-346"/>
<text text-anchor="middle" x="222" y="-386.8" font-family="Helvetica,sans-Serif" font-weight="bold" font-size="9.00">interaction</text>
</g>
<g id="clust4" class="cluster">
<title>cluster_core/math</title>
<path fill="#ffffff" stroke="black" stroke-width="2" d="M463,-165C463,-165 746,-165 746,-165 752,-165 758,-171 758,-177 758,-177 758,-279 758,-279 758,-285 752,-291 746,-291 746,-291 463,-291 463,-291 457,-291 451,-285 451,-279 451,-279 451,-177 451,-177 451,-171 457,-165 463,-165"/>
<text text-anchor="middle" x="604.5" y="-279.8" font-family="Helvetica,sans-Serif" font-weight="bold" font-size="9.00">math</text>
</g>
<g id="clust5" class="cluster">
<title>cluster_core/scene</title>
<path fill="#ffffff" stroke="black" stroke-width="2" d="M165,-136C165,-136 431,-136 431,-136 437,-136 443,-142 443,-148 443,-148 443,-326 443,-326 443,-332 437,-338 431,-338 431,-338 165,-338 165,-338 159,-338 153,-332 153,-326 153,-326 153,-148 153,-148 153,-142 159,-136 165,-136"/>
<text text-anchor="middle" x="298" y="-326.8" font-family="Helvetica,sans-Serif" font-weight="bold" font-size="9.00">scene</text>
</g>
<!-- core/controls/first&#45;person&#45;controls.js -->
<g id="node1" class="node">
<title>core/controls/first&#45;person&#45;controls.js</title>
<g id="a_node1"><a xlink:href="core/controls/first-person-controls.js" xlink:title="first&#45;person&#45;controls.js">
<path fill="#ffffcc" stroke="black" d="M137,-42C137,-42 32,-42 32,-42 29,-42 26,-39 26,-36 26,-36 26,-30 26,-30 26,-27 29,-24 32,-24 32,-24 137,-24 137,-24 140,-24 143,-27 143,-30 143,-30 143,-36 143,-36 143,-39 140,-42 137,-42"/>
<text text-anchor="start" x="34" y="-30.8" font-family="Helvetica,sans-Serif" font-size="9.00">first&#45;person&#45;controls.js</text>
</a>
</g>
</g>
<!-- core/scene/first&#45;person&#45;camera.js -->
<g id="node2" class="node">
<title>core/scene/first&#45;person&#45;camera.js</title>
<g id="a_node2"><a xlink:href="core/scene/first-person-camera.js" xlink:title="first&#45;person&#45;camera.js">
<path fill="#ffffcc" stroke="black" d="M273.5,-222C273.5,-222 170.5,-222 170.5,-222 167.5,-222 164.5,-219 164.5,-216 164.5,-216 164.5,-210 164.5,-210 164.5,-207 167.5,-204 170.5,-204 170.5,-204 273.5,-204 273.5,-204 276.5,-204 279.5,-207 279.5,-210 279.5,-210 279.5,-216 279.5,-216 279.5,-219 276.5,-222 273.5,-222"/>
<text text-anchor="start" x="172.5" y="-210.8" font-family="Helvetica,sans-Serif" font-size="9.00">first&#45;person&#45;camera.js</text>
</a>
</g>
</g>
<!-- core/controls/first&#45;person&#45;controls.js&#45;&gt;core/scene/first&#45;person&#45;camera.js -->
<g id="edge1" class="edge">
<title>core/controls/first&#45;person&#45;controls.js&#45;&gt;core/scene/first&#45;person&#45;camera.js</title>
<path fill="none" stroke="#000000" stroke-width="2" stroke-opacity="0.200000" d="M138.51,-42.02C140.91,-43.72 143.1,-45.7 145,-48 166.21,-73.78 131.41,-172.54 153,-198 154.8,-200.13 156.83,-201.99 159.04,-203.62"/>
<polygon fill="#000000" fill-opacity="0.200000" stroke="#000000" stroke-width="2" stroke-opacity="0.200000" points="158.26,-205.62 164.46,-207.03 160.49,-202.06 158.26,-205.62"/>
</g>
<!-- core/scene/object3d.js -->
<g id="node3" class="node">
<title>core/scene/object3d.js</title>
<g id="a_node3"><a xlink:href="core/scene/object3d.js" xlink:title="object3d.js">
<path fill="#ffffcc" stroke="black" d="M429,-162C429,-162 375,-162 375,-162 372,-162 369,-159 369,-156 369,-156 369,-150 369,-150 369,-147 372,-144 375,-144 375,-144 429,-144 429,-144 432,-144 435,-147 435,-150 435,-150 435,-156 435,-156 435,-159 432,-162 429,-162"/>
<text text-anchor="start" x="377" y="-150.8" font-family="Helvetica,sans-Serif" font-size="9.00">object3d.js</text>
</a>
</g>
</g>
<!-- core/controls/first&#45;person&#45;controls.js&#45;&gt;core/scene/object3d.js -->
<g id="edge2" class="edge">
<title>core/controls/first&#45;person&#45;controls.js&#45;&gt;core/scene/object3d.js</title>
<path fill="none" stroke="#000000" stroke-width="2" stroke-opacity="0.200000" d="M143.01,-27.42C202.07,-24.76 293.9,-29.5 356,-75 377.45,-90.72 390.26,-119.99 396.45,-137.86"/>
<polygon fill="#000000" fill-opacity="0.200000" stroke="#000000" stroke-width="2" stroke-opacity="0.200000" points="394.56,-138.84 398.43,-143.88 398.55,-137.53 394.56,-138.84"/>
</g>
<!-- core/controls/keyboard&#45;controls.js -->
<g id="node4" class="node">
<title>core/controls/keyboard&#45;controls.js</title>
<g id="a_node4"><a xlink:href="core/controls/keyboard-controls.js" xlink:title="keyboard&#45;controls.js">
<path fill="#ffffcc" stroke="black" d="M269.5,-100C269.5,-100 174.5,-100 174.5,-100 171.5,-100 168.5,-97 168.5,-94 168.5,-94 168.5,-88 168.5,-88 168.5,-85 171.5,-82 174.5,-82 174.5,-82 269.5,-82 269.5,-82 272.5,-82 275.5,-85 275.5,-88 275.5,-88 275.5,-94 275.5,-94 275.5,-97 272.5,-100 269.5,-100"/>
<text text-anchor="start" x="176.5" y="-88.8" font-family="Helvetica,sans-Serif" font-size="9.00">keyboard&#45;controls.js</text>
</a>
</g>
</g>
<!-- core/controls/first&#45;person&#45;controls.js&#45;&gt;core/controls/keyboard&#45;controls.js -->
<g id="edge3" class="edge">
<title>core/controls/first&#45;person&#45;controls.js&#45;&gt;core/controls/keyboard&#45;controls.js</title>
<path fill="none" stroke="#000000" stroke-width="2" stroke-opacity="0.200000" d="M127.25,-42.01C133.29,-43.75 139.36,-45.74 145,-48 165.56,-56.23 187.4,-69.07 202.36,-78.58"/>
<polygon fill="#000000" fill-opacity="0.200000" stroke="#000000" stroke-width="2" stroke-opacity="0.200000" points="201.37,-80.43 207.55,-81.91 203.64,-76.9 201.37,-80.43"/>
</g>
<!-- core/scene/camera.js -->
<g id="node5" class="node">
<title>core/scene/camera.js</title>
<g id="a_node5"><a xlink:href="core/scene/camera.js" xlink:title="camera.js">
<path fill="#ffffcc" stroke="black" d="M350,-162C350,-162 302,-162 302,-162 299,-162 296,-159 296,-156 296,-156 296,-150 296,-150 296,-147 299,-144 302,-144 302,-144 350,-144 350,-144 353,-144 356,-147 356,-150 356,-150 356,-156 356,-156 356,-159 353,-162 350,-162"/>
<text text-anchor="start" x="304" y="-150.8" font-family="Helvetica,sans-Serif" font-size="9.00">camera.js</text>
</a>
</g>
</g>
<!-- core/scene/first&#45;person&#45;camera.js&#45;&gt;core/scene/camera.js -->
<g id="edge22" class="edge">
<title>core/scene/first&#45;person&#45;camera.js&#45;&gt;core/scene/camera.js</title>
<path fill="none" stroke="#000000" stroke-width="2" stroke-opacity="0.200000" d="M274.58,-203.98C277.77,-202.3 280.79,-200.33 283.5,-198 294.46,-188.59 286.22,-178.63 296,-168 296.65,-167.3 297.34,-166.62 298.06,-165.97"/>
<polygon fill="#000000" fill-opacity="0.200000" stroke="#000000" stroke-width="2" stroke-opacity="0.200000" points="299.69,-167.37 303.2,-162.07 297.15,-164.02 299.69,-167.37"/>
</g>
<!-- core/math/matrix4.js -->
<g id="node11" class="node">
<title>core/math/matrix4.js</title>
<g id="a_node11"><a xlink:href="core/math/matrix4.js" xlink:title="matrix4.js">
<path fill="#ffffcc" stroke="black" d="M542,-265C542,-265 492,-265 492,-265 489,-265 486,-262 486,-259 486,-259 486,-253 486,-253 486,-250 489,-247 492,-247 492,-247 542,-247 542,-247 545,-247 548,-250 548,-253 548,-253 548,-259 548,-259 548,-262 545,-265 542,-265"/>
<text text-anchor="start" x="494" y="-253.8" font-family="Helvetica,sans-Serif" font-size="9.00">matrix4.js</text>
</a>
</g>
</g>
<!-- core/scene/first&#45;person&#45;camera.js&#45;&gt;core/math/matrix4.js -->
<g id="edge21" class="edge">
<title>core/scene/first&#45;person&#45;camera.js&#45;&gt;core/math/matrix4.js</title>
<path fill="none" stroke="#000000" stroke-width="2" stroke-opacity="0.200000" d="M269.44,-222.06C274.31,-223.73 279.09,-225.69 283.5,-228 290.06,-231.43 289.18,-236.12 296,-239 312.43,-245.93 421.36,-251.78 479.53,-254.44"/>
<polygon fill="#000000" fill-opacity="0.200000" stroke="#000000" stroke-width="2" stroke-opacity="0.200000" points="479.59,-256.55 485.68,-254.72 479.78,-252.35 479.59,-256.55"/>
</g>
<!-- core/math/vector3.js -->
<g id="node7" class="node">
<title>core/math/vector3.js</title>
<g id="a_node7"><a xlink:href="core/math/vector3.js" xlink:title="vector3.js">
<path fill="#ffffcc" stroke="black" d="M744,-232C744,-232 695,-232 695,-232 692,-232 689,-229 689,-226 689,-226 689,-220 689,-220 689,-217 692,-214 695,-214 695,-214 744,-214 744,-214 747,-214 750,-217 750,-220 750,-220 750,-226 750,-226 750,-229 747,-232 744,-232"/>
<text text-anchor="start" x="697" y="-220.8" font-family="Helvetica,sans-Serif" font-size="9.00">vector3.js</text>
</a>
</g>
</g>
<!-- core/scene/object3d.js&#45;&gt;core/math/vector3.js -->
<g id="edge26" class="edge">
<title>core/scene/object3d.js&#45;&gt;core/math/vector3.js</title>
<path fill="none" stroke="#000000" stroke-width="2" stroke-opacity="0.200000" d="M435.14,-146.39C488.63,-137.1 597.76,-125.62 676,-167 692.84,-175.91 704.95,-194.77 711.83,-208.14"/>
<polygon fill="#000000" fill-opacity="0.200000" stroke="#000000" stroke-width="2" stroke-opacity="0.200000" points="710.1,-209.38 714.62,-213.84 713.87,-207.53 710.1,-209.38"/>
</g>
<!-- core/scene/object3d.js&#45;&gt;core/math/matrix4.js -->
<g id="edge25" class="edge">
<title>core/scene/object3d.js&#45;&gt;core/math/matrix4.js</title>
<path fill="none" stroke="#000000" stroke-width="2" stroke-opacity="0.200000" d="M407.42,-162.07C417.9,-183.46 443.96,-235.66 451,-241 459.33,-247.32 469.87,-251.05 480.02,-253.23"/>
<polygon fill="#000000" fill-opacity="0.200000" stroke="#000000" stroke-width="2" stroke-opacity="0.200000" points="479.65,-255.29 485.94,-254.34 480.43,-251.17 479.65,-255.29"/>
</g>
<!-- core/controls/keyboard&#45;controls.js&#45;&gt;core/scene/object3d.js -->
<g id="edge5" class="edge">
<title>core/controls/keyboard&#45;controls.js&#45;&gt;core/scene/object3d.js</title>
<path fill="none" stroke="#000000" stroke-width="2" stroke-opacity="0.200000" d="M269.47,-100.07C274.24,-101.28 278.99,-102.59 283.5,-104 316.56,-114.35 353.17,-130.39 376.61,-141.28"/>
<polygon fill="#000000" fill-opacity="0.200000" stroke="#000000" stroke-width="2" stroke-opacity="0.200000" points="375.94,-143.28 382.27,-143.93 377.72,-139.48 375.94,-143.28"/>
</g>
<!-- core/controls/keyboard&#45;controls.js&#45;&gt;core/scene/camera.js -->
<g id="edge4" class="edge">
<title>core/controls/keyboard&#45;controls.js&#45;&gt;core/scene/camera.js</title>
<path fill="none" stroke="#000000" stroke-width="2" stroke-opacity="0.200000" d="M246.12,-100.07C257.7,-105.01 271.73,-111.62 283.5,-119 293.17,-125.06 303.1,-133.11 310.81,-139.86"/>
<polygon fill="#000000" fill-opacity="0.200000" stroke="#000000" stroke-width="2" stroke-opacity="0.200000" points="309.43,-141.44 315.31,-143.86 312.22,-138.3 309.43,-141.44"/>
</g>
<!-- core/scene/camera.js&#45;&gt;core/scene/object3d.js -->
<g id="edge20" class="edge">
<title>core/scene/camera.js&#45;&gt;core/scene/object3d.js</title>
<path fill="none" stroke="#000000" stroke-width="2" stroke-opacity="0.200000" d="M356.25,-153C358.27,-153 360.32,-153 362.38,-153"/>
<polygon fill="#000000" fill-opacity="0.200000" stroke="#000000" stroke-width="2" stroke-opacity="0.200000" points="362.55,-155.1 368.55,-153 362.55,-150.9 362.55,-155.1"/>
</g>
<!-- core/controls/orbit&#45;controls.js -->
<g id="node6" class="node">
<title>core/controls/orbit&#45;controls.js</title>
<g id="a_node6"><a xlink:href="core/controls/orbit-controls.js" xlink:title="orbit&#45;controls.js">
<path fill="#ffffcc" stroke="black" d="M121.5,-102C121.5,-102 47.5,-102 47.5,-102 44.5,-102 41.5,-99 41.5,-96 41.5,-96 41.5,-90 41.5,-90 41.5,-87 44.5,-84 47.5,-84 47.5,-84 121.5,-84 121.5,-84 124.5,-84 127.5,-87 127.5,-90 127.5,-90 127.5,-96 127.5,-96 127.5,-99 124.5,-102 121.5,-102"/>
<text text-anchor="start" x="49.5" y="-90.8" font-family="Helvetica,sans-Serif" font-size="9.00">orbit&#45;controls.js</text>
</a>
</g>
</g>
<!-- core/controls/orbit&#45;controls.js&#45;&gt;core/scene/camera.js -->
<g id="edge7" class="edge">
<title>core/controls/orbit&#45;controls.js&#45;&gt;core/scene/camera.js</title>
<path fill="none" stroke="#000000" stroke-width="2" stroke-opacity="0.200000" d="M127.6,-101C167.95,-109.03 230.39,-122.43 283.5,-138 287.45,-139.16 291.57,-140.49 295.62,-141.88"/>
<polygon fill="#000000" fill-opacity="0.200000" stroke="#000000" stroke-width="2" stroke-opacity="0.200000" points="295.11,-143.92 301.46,-143.92 296.5,-139.96 295.11,-143.92"/>
</g>
<!-- core/controls/orbit&#45;controls.js&#45;&gt;core/math/vector3.js -->
<g id="edge6" class="edge">
<title>core/controls/orbit&#45;controls.js&#45;&gt;core/math/vector3.js</title>
<path fill="none" stroke="#000000" stroke-width="2" stroke-opacity="0.200000" d="M86.05,-102.12C89.04,-148.88 105.17,-361.13 153,-401 211.75,-449.98 248.51,-407 325,-407 325,-407 325,-407 518,-407 617.95,-407 689.63,-281.35 711.5,-237.72"/>
<polygon fill="#000000" fill-opacity="0.200000" stroke="#000000" stroke-width="2" stroke-opacity="0.200000" points="713.49,-238.43 714.26,-232.12 709.72,-236.58 713.49,-238.43"/>
</g>
<!-- core/controls/third&#45;person&#45;controls.js -->
<g id="node8" class="node">
<title>core/controls/third&#45;person&#45;controls.js</title>
<g id="a_node8"><a xlink:href="core/controls/third-person-controls.js" xlink:title="third&#45;person&#45;controls.js">
<path fill="#ffffcc" stroke="black" d="M139,-72C139,-72 30,-72 30,-72 27,-72 24,-69 24,-66 24,-66 24,-60 24,-60 24,-57 27,-54 30,-54 30,-54 139,-54 139,-54 142,-54 145,-57 145,-60 145,-60 145,-66 145,-66 145,-69 142,-72 139,-72"/>
<text text-anchor="start" x="32" y="-60.8" font-family="Helvetica,sans-Serif" font-size="9.00">third&#45;person&#45;controls.js</text>
</a>
</g>
</g>
<!-- core/controls/third&#45;person&#45;controls.js&#45;&gt;core/scene/object3d.js -->
<g id="edge8" class="edge">
<title>core/controls/third&#45;person&#45;controls.js&#45;&gt;core/scene/object3d.js</title>
<path fill="none" stroke="#000000" stroke-width="2" stroke-opacity="0.200000" d="M145.11,-62.06C184.78,-62.62 237.81,-65.64 283.5,-76 317.34,-83.68 327.34,-85.43 356,-105 369.62,-114.3 382.19,-128.38 390.56,-138.88"/>
<polygon fill="#000000" fill-opacity="0.200000" stroke="#000000" stroke-width="2" stroke-opacity="0.200000" points="388.98,-140.27 394.32,-143.72 392.3,-137.69 388.98,-140.27"/>
</g>
<!-- core/controls/third&#45;person&#45;controls.js&#45;&gt;core/controls/keyboard&#45;controls.js -->
<g id="edge10" class="edge">
<title>core/controls/third&#45;person&#45;controls.js&#45;&gt;core/controls/keyboard&#45;controls.js</title>
<path fill="none" stroke="#000000" stroke-width="2" stroke-opacity="0.200000" d="M129.12,-72.01C142.4,-74.76 157.11,-77.8 170.79,-80.63"/>
<polygon fill="#000000" fill-opacity="0.200000" stroke="#000000" stroke-width="2" stroke-opacity="0.200000" points="170.7,-82.75 177,-81.91 171.55,-78.64 170.7,-82.75"/>
</g>
<!-- core/scene/third&#45;person&#45;camera.js -->
<g id="node9" class="node">
<title>core/scene/third&#45;person&#45;camera.js</title>
<g id="a_node9"><a xlink:href="core/scene/third-person-camera.js" xlink:title="third&#45;person&#45;camera.js">
<path fill="#ffffcc" stroke="black" d="M275.5,-252C275.5,-252 168.5,-252 168.5,-252 165.5,-252 162.5,-249 162.5,-246 162.5,-246 162.5,-240 162.5,-240 162.5,-237 165.5,-234 168.5,-234 168.5,-234 275.5,-234 275.5,-234 278.5,-234 281.5,-237 281.5,-240 281.5,-240 281.5,-246 281.5,-246 281.5,-249 278.5,-252 275.5,-252"/>
<text text-anchor="start" x="170.5" y="-240.8" font-family="Helvetica,sans-Serif" font-size="9.00">third&#45;person&#45;camera.js</text>
</a>
</g>
</g>
<!-- core/controls/third&#45;person&#45;controls.js&#45;&gt;core/scene/third&#45;person&#45;camera.js -->
<g id="edge9" class="edge">
<title>core/controls/third&#45;person&#45;controls.js&#45;&gt;core/scene/third&#45;person&#45;camera.js</title>
<path fill="none" stroke="#000000" stroke-width="2" stroke-opacity="0.200000" d="M138.51,-72.02C140.91,-73.72 143.1,-75.7 145,-78 166.21,-103.78 131.41,-202.54 153,-228 154.33,-229.57 155.78,-230.99 157.34,-232.29"/>
<polygon fill="#000000" fill-opacity="0.200000" stroke="#000000" stroke-width="2" stroke-opacity="0.200000" points="156.17,-234.04 162.28,-235.8 158.6,-230.61 156.17,-234.04"/>
</g>
<!-- core/scene/third&#45;person&#45;camera.js&#45;&gt;core/scene/camera.js -->
<g id="edge34" class="edge">
<title>core/scene/third&#45;person&#45;camera.js&#45;&gt;core/scene/camera.js</title>
<path fill="none" stroke="#000000" stroke-width="2" stroke-opacity="0.200000" d="M276.21,-233.87C278.86,-232.2 281.32,-230.26 283.5,-228 302.4,-208.38 279.53,-189.69 296,-168 296.43,-167.44 296.88,-166.89 297.36,-166.36"/>
<polygon fill="#000000" fill-opacity="0.200000" stroke="#000000" stroke-width="2" stroke-opacity="0.200000" points="299.08,-167.65 302.22,-162.12 296.32,-164.49 299.08,-167.65"/>
</g>
<!-- core/scene/third&#45;person&#45;camera.js&#45;&gt;core/math/matrix4.js -->
<g id="edge33" class="edge">
<title>core/scene/third&#45;person&#45;camera.js&#45;&gt;core/math/matrix4.js</title>
<path fill="none" stroke="#000000" stroke-width="2" stroke-opacity="0.200000" d="M281.5,-251.66C286.4,-252.19 291.28,-252.65 296,-253 360.44,-257.83 435.79,-257.59 479.49,-256.87"/>
<polygon fill="#000000" fill-opacity="0.200000" stroke="#000000" stroke-width="2" stroke-opacity="0.200000" points="479.74,-258.96 485.7,-256.76 479.66,-254.76 479.74,-258.96"/>
</g>
<!-- core/interaction/raycaster.js -->
<g id="node10" class="node">
<title>core/interaction/raycaster.js</title>
<g id="a_node10"><a xlink:href="core/interaction/raycaster.js" xlink:title="raycaster.js">
<path fill="#ffffcc" stroke="black" d="M250,-372C250,-372 194,-372 194,-372 191,-372 188,-369 188,-366 188,-366 188,-360 188,-360 188,-357 191,-354 194,-354 194,-354 250,-354 250,-354 253,-354 256,-357 256,-360 256,-360 256,-366 256,-366 256,-369 253,-372 250,-372"/>
<text text-anchor="start" x="196" y="-360.8" font-family="Helvetica,sans-Serif" font-size="9.00">raycaster.js</text>
</a>
</g>
</g>
<!-- core/interaction/raycaster.js&#45;&gt;core/scene/camera.js -->
<g id="edge12" class="edge">
<title>core/interaction/raycaster.js&#45;&gt;core/scene/camera.js</title>
<path fill="none" stroke="#000000" stroke-width="2" stroke-opacity="0.200000" d="M256.14,-358.19C266.48,-355.01 276.9,-349.74 283.5,-341 306.74,-310.25 274.79,-200.18 296,-168 296.37,-167.43 296.78,-166.88 297.21,-166.36"/>
<polygon fill="#000000" fill-opacity="0.200000" stroke="#000000" stroke-width="2" stroke-opacity="0.200000" points="298.75,-167.78 301.64,-162.12 295.85,-164.74 298.75,-167.78"/>
</g>
<!-- core/interaction/raycaster.js&#45;&gt;core/math/matrix4.js -->
<g id="edge11" class="edge">
<title>core/interaction/raycaster.js&#45;&gt;core/math/matrix4.js</title>
<path fill="none" stroke="#000000" stroke-width="2" stroke-opacity="0.200000" d="M256.09,-367.01C301.11,-370.9 382.92,-372.31 443,-341 473.62,-325.04 496.87,-290.36 508.25,-270.58"/>
<polygon fill="#000000" fill-opacity="0.200000" stroke="#000000" stroke-width="2" stroke-opacity="0.200000" points="510.17,-271.45 511.27,-265.19 506.51,-269.4 510.17,-271.45"/>
</g>
<!-- core/scene/mesh.js -->
<g id="node12" class="node">
<title>core/scene/mesh.js</title>
<g id="a_node12"><a xlink:href="core/scene/mesh.js" xlink:title="mesh.js">
<path fill="#ffffcc" stroke="black" d="M347,-192C347,-192 305,-192 305,-192 302,-192 299,-189 299,-186 299,-186 299,-180 299,-180 299,-177 302,-174 305,-174 305,-174 347,-174 347,-174 350,-174 353,-177 353,-180 353,-180 353,-186 353,-186 353,-189 350,-192 347,-192"/>
<text text-anchor="start" x="308.5" y="-180.8" font-family="Helvetica,sans-Serif" font-size="9.00">mesh.js</text>
</a>
</g>
</g>
<!-- core/interaction/raycaster.js&#45;&gt;core/scene/mesh.js -->
<g id="edge13" class="edge">
<title>core/interaction/raycaster.js&#45;&gt;core/scene/mesh.js</title>
<path fill="none" stroke="#000000" stroke-width="2" stroke-opacity="0.200000" d="M256.07,-358.13C266.4,-354.95 276.83,-349.69 283.5,-341 302.92,-315.69 278.24,-224.5 296,-198 296.38,-197.43 296.79,-196.89 297.22,-196.36"/>
<polygon fill="#000000" fill-opacity="0.200000" stroke="#000000" stroke-width="2" stroke-opacity="0.200000" points="298.76,-197.79 301.68,-192.14 295.88,-194.74 298.76,-197.79"/>
</g>
<!-- core/scene/scene.js -->
<g id="node13" class="node">
<title>core/scene/scene.js</title>
<g id="a_node13"><a xlink:href="core/scene/scene.js" xlink:title="scene.js">
<path fill="#ffffcc" stroke="black" d="M347,-222C347,-222 305,-222 305,-222 302,-222 299,-219 299,-216 299,-216 299,-210 299,-210 299,-207 302,-204 305,-204 305,-204 347,-204 347,-204 350,-204 353,-207 353,-210 353,-210 353,-216 353,-216 353,-219 350,-222 347,-222"/>
<text text-anchor="start" x="307.5" y="-210.8" font-family="Helvetica,sans-Serif" font-size="9.00">scene.js</text>
</a>
</g>
</g>
<!-- core/interaction/raycaster.js&#45;&gt;core/scene/scene.js -->
<g id="edge14" class="edge">
<title>core/interaction/raycaster.js&#45;&gt;core/scene/scene.js</title>
<path fill="none" stroke="#000000" stroke-width="2" stroke-opacity="0.200000" d="M256.25,-356.8C266.11,-353.53 276.2,-348.56 283.5,-341 314.16,-309.24 322.17,-254.61 324.26,-228.19"/>
<polygon fill="#000000" fill-opacity="0.200000" stroke="#000000" stroke-width="2" stroke-opacity="0.200000" points="326.36,-228.24 324.68,-222.11 322.17,-227.96 326.36,-228.24"/>
</g>
<!-- core/scene/mesh.js&#45;&gt;core/scene/object3d.js -->
<g id="edge24" class="edge">
<title>core/scene/mesh.js&#45;&gt;core/scene/object3d.js</title>
<path fill="none" stroke="#000000" stroke-width="2" stroke-opacity="0.200000" d="M349.2,-174C356.6,-171 364.94,-167.62 372.73,-164.46"/>
<polygon fill="#000000" fill-opacity="0.200000" stroke="#000000" stroke-width="2" stroke-opacity="0.200000" points="373.79,-166.3 378.56,-162.1 372.21,-162.41 373.79,-166.3"/>
</g>
<!-- core/scene/scene.js&#45;&gt;core/scene/object3d.js -->
<g id="edge32" class="edge">
<title>core/scene/scene.js&#45;&gt;core/scene/object3d.js</title>
<path fill="none" stroke="#000000" stroke-width="2" stroke-opacity="0.200000" d="M346.53,-203.96C349.79,-202.15 353.07,-200.14 356,-198 368.46,-188.89 380.71,-176.33 389.28,-166.79"/>
<polygon fill="#000000" fill-opacity="0.200000" stroke="#000000" stroke-width="2" stroke-opacity="0.200000" points="391.01,-168 393.41,-162.11 387.86,-165.22 391.01,-168"/>
</g>
<!-- core/math/catmull&#45;rom&#45;curve3.js -->
<g id="node14" class="node">
<title>core/math/catmull&#45;rom&#45;curve3.js</title>
<g id="a_node14"><a xlink:href="core/math/catmull-rom-curve3.js" xlink:title="catmull&#45;rom&#45;curve3.js">
<path fill="#ffffcc" stroke="black" d="M569,-235C569,-235 465,-235 465,-235 462,-235 459,-232 459,-229 459,-229 459,-223 459,-223 459,-220 462,-217 465,-217 465,-217 569,-217 569,-217 572,-217 575,-220 575,-223 575,-223 575,-229 575,-229 575,-232 572,-235 569,-235"/>
<text text-anchor="start" x="467" y="-223.8" font-family="Helvetica,sans-Serif" font-size="9.00">catmull&#45;rom&#45;curve3.js</text>
</a>
</g>
</g>
<!-- core/math/catmull&#45;rom&#45;curve3.js&#45;&gt;core/math/vector3.js -->
<g id="edge16" class="edge">
<title>core/math/catmull&#45;rom&#45;curve3.js&#45;&gt;core/math/vector3.js</title>
<path fill="none" stroke="#000000" stroke-width="2" stroke-opacity="0.200000" d="M575.07,-227.83C605.12,-228.42 642.57,-228.57 676,-227 678.2,-226.9 680.47,-226.76 682.75,-226.61"/>
<polygon fill="#000000" fill-opacity="0.200000" stroke="#000000" stroke-width="2" stroke-opacity="0.200000" points="682.98,-228.7 688.8,-226.15 682.66,-224.51 682.98,-228.7"/>
</g>
<!-- core/math/curve3.js -->
<g id="node15" class="node">
<title>core/math/curve3.js</title>
<g id="a_node15"><a xlink:href="core/math/curve3.js" xlink:title="curve3.js">
<path fill="#ffffcc" stroke="black" d="M655,-265C655,-265 609,-265 609,-265 606,-265 603,-262 603,-259 603,-259 603,-253 603,-253 603,-250 606,-247 609,-247 609,-247 655,-247 655,-247 658,-247 661,-250 661,-253 661,-253 661,-259 661,-259 661,-262 658,-265 655,-265"/>
<text text-anchor="start" x="611" y="-253.8" font-family="Helvetica,sans-Serif" font-size="9.00">curve3.js</text>
</a>
</g>
</g>
<!-- core/math/catmull&#45;rom&#45;curve3.js&#45;&gt;core/math/curve3.js -->
<g id="edge15" class="edge">
<title>core/math/catmull&#45;rom&#45;curve3.js&#45;&gt;core/math/curve3.js</title>
<path fill="none" stroke="#000000" stroke-width="2" stroke-opacity="0.200000" d="M552.37,-235.02C559.83,-236.98 567.68,-239.06 575,-241 582.07,-242.88 589.63,-244.9 596.85,-246.83"/>
<polygon fill="#000000" fill-opacity="0.200000" stroke="#000000" stroke-width="2" stroke-opacity="0.200000" points="596.47,-248.9 602.81,-248.42 597.55,-244.84 596.47,-248.9"/>
</g>
<!-- core/math/curve3.js&#45;&gt;core/math/vector3.js -->
<g id="edge17" class="edge">
<title>core/math/curve3.js&#45;&gt;core/math/vector3.js</title>
<path fill="none" stroke="#000000" stroke-width="2" stroke-opacity="0.200000" d="M656.36,-246.98C666.54,-243.05 678.58,-238.41 689.34,-234.25"/>
<polygon fill="#000000" fill-opacity="0.200000" stroke="#000000" stroke-width="2" stroke-opacity="0.200000" points="690.32,-236.13 695.16,-232.01 688.81,-232.21 690.32,-236.13"/>
</g>
<!-- core/math/path3d.js -->
<g id="node16" class="node">
<title>core/math/path3d.js</title>
<g id="a_node16"><a xlink:href="core/math/path3d.js" xlink:title="path3d.js">
<path fill="#ffffcc" stroke="black" d="M655.5,-221C655.5,-221 608.5,-221 608.5,-221 605.5,-221 602.5,-218 602.5,-215 602.5,-215 602.5,-209 602.5,-209 602.5,-206 605.5,-203 608.5,-203 608.5,-203 655.5,-203 655.5,-203 658.5,-203 661.5,-206 661.5,-209 661.5,-209 661.5,-215 661.5,-215 661.5,-218 658.5,-221 655.5,-221"/>
<text text-anchor="start" x="610.5" y="-209.8" font-family="Helvetica,sans-Serif" font-size="9.00">path3d.js</text>
</a>
</g>
</g>
<!-- core/math/path3d.js&#45;&gt;core/math/vector3.js -->
<g id="edge18" class="edge">
<title>core/math/path3d.js&#45;&gt;core/math/vector3.js</title>
<path fill="none" stroke="#000000" stroke-width="2" stroke-opacity="0.200000" d="M661.95,-215.72C668.55,-216.57 675.64,-217.49 682.5,-218.37"/>
<polygon fill="#000000" fill-opacity="0.200000" stroke="#000000" stroke-width="2" stroke-opacity="0.200000" points="682.49,-220.48 688.71,-219.17 683.03,-216.32 682.49,-220.48"/>
</g>
<!-- core/math/vector3&#45;math.js -->
<g id="node17" class="node">
<title>core/math/vector3&#45;math.js</title>
<g id="a_node17"><a xlink:href="core/math/vector3-math.js" xlink:title="vector3&#45;math.js">
<path fill="#ffffcc" stroke="black" d="M670,-191C670,-191 594,-191 594,-191 591,-191 588,-188 588,-185 588,-185 588,-179 588,-179 588,-176 591,-173 594,-173 594,-173 670,-173 670,-173 673,-173 676,-176 676,-179 676,-179 676,-185 676,-185 676,-188 673,-191 670,-191"/>
<text text-anchor="start" x="596" y="-179.8" font-family="Helvetica,sans-Serif" font-size="9.00">vector3&#45;math.js</text>
</a>
</g>
</g>
<!-- core/math/vector3&#45;math.js&#45;&gt;core/math/vector3.js -->
<g id="edge19" class="edge">
<title>core/math/vector3&#45;math.js&#45;&gt;core/math/vector3.js</title>
<path fill="none" stroke="#000000" stroke-width="2" stroke-opacity="0.200000" d="M661.56,-191C666.45,-192.81 671.43,-194.83 676,-197 684.1,-200.84 692.6,-205.82 699.86,-210.41"/>
<polygon fill="#000000" fill-opacity="0.200000" stroke="#000000" stroke-width="2" stroke-opacity="0.200000" points="698.95,-212.32 705.13,-213.8 701.23,-208.79 698.95,-212.32"/>
</g>
<!-- core/scene/line.js -->
<g id="node18" class="node">
<title>core/scene/line.js</title>
<g id="a_node18"><a xlink:href="core/scene/line.js" xlink:title="line.js">
<path fill="#ffffcc" stroke="black" d="M243,-312C243,-312 201,-312 201,-312 198,-312 195,-309 195,-306 195,-306 195,-300 195,-300 195,-297 198,-294 201,-294 201,-294 243,-294 243,-294 246,-294 249,-297 249,-300 249,-300 249,-306 249,-306 249,-309 246,-312 243,-312"/>
<text text-anchor="start" x="209" y="-300.8" font-family="Helvetica,sans-Serif" font-size="9.00">line.js</text>
</a>
</g>
</g>
<!-- core/scene/line.js&#45;&gt;core/scene/mesh.js -->
<g id="edge23" class="edge">
<title>core/scene/line.js&#45;&gt;core/scene/mesh.js</title>
<path fill="none" stroke="#000000" stroke-width="2" stroke-opacity="0.200000" d="M249.03,-302.93C261.21,-301.49 274.88,-297.57 283.5,-288 310.52,-257.98 272.68,-230.97 296,-198 296.41,-197.42 296.85,-196.86 297.31,-196.33"/>
<polygon fill="#000000" fill-opacity="0.200000" stroke="#000000" stroke-width="2" stroke-opacity="0.200000" points="299.03,-197.6 302.07,-192.01 296.21,-194.49 299.03,-197.6"/>
</g>
<!-- core/scene/orthographic&#45;camera.js -->
<g id="node19" class="node">
<title>core/scene/orthographic&#45;camera.js</title>
<g id="a_node19"><a xlink:href="core/scene/orthographic-camera.js" xlink:title="orthographic&#45;camera.js">
<path fill="#ffffcc" stroke="black" d="M277,-282C277,-282 167,-282 167,-282 164,-282 161,-279 161,-276 161,-276 161,-270 161,-270 161,-267 164,-264 167,-264 167,-264 277,-264 277,-264 280,-264 283,-267 283,-270 283,-270 283,-276 283,-276 283,-279 280,-282 277,-282"/>
<text text-anchor="start" x="169" y="-270.8" font-family="Helvetica,sans-Serif" font-size="9.00">orthographic&#45;camera.js</text>
</a>
</g>
</g>
<!-- core/scene/orthographic&#45;camera.js&#45;&gt;core/scene/camera.js -->
<g id="edge28" class="edge">
<title>core/scene/orthographic&#45;camera.js&#45;&gt;core/scene/camera.js</title>
<path fill="none" stroke="#000000" stroke-width="2" stroke-opacity="0.200000" d="M276.66,-263.86C279.17,-262.19 281.47,-260.25 283.5,-258 310.52,-227.98 272.68,-200.97 296,-168 296.41,-167.42 296.85,-166.86 297.31,-166.33"/>
<polygon fill="#000000" fill-opacity="0.200000" stroke="#000000" stroke-width="2" stroke-opacity="0.200000" points="299.03,-167.6 302.07,-162.01 296.21,-164.49 299.03,-167.6"/>
</g>
<!-- core/scene/orthographic&#45;camera.js&#45;&gt;core/math/matrix4.js -->
<g id="edge27" class="edge">
<title>core/scene/orthographic&#45;camera.js&#45;&gt;core/math/matrix4.js</title>
<path fill="none" stroke="#000000" stroke-width="2" stroke-opacity="0.200000" d="M283.35,-269.5C342.47,-266.07 430.62,-260.95 479.7,-258.11"/>
<polygon fill="#000000" fill-opacity="0.200000" stroke="#000000" stroke-width="2" stroke-opacity="0.200000" points="479.9,-260.2 485.77,-257.75 479.66,-256 479.9,-260.2"/>
</g>
<!-- core/scene/perspective&#45;camera.js -->
<g id="node20" class="node">
<title>core/scene/perspective&#45;camera.js</title>
<g id="a_node20"><a xlink:href="core/scene/perspective-camera.js" xlink:title="perspective&#45;camera.js">
<path fill="#ffffcc" stroke="black" d="M274,-192C274,-192 170,-192 170,-192 167,-192 164,-189 164,-186 164,-186 164,-180 164,-180 164,-177 167,-174 170,-174 170,-174 274,-174 274,-174 277,-174 280,-177 280,-180 280,-180 280,-186 280,-186 280,-189 277,-192 274,-192"/>
<text text-anchor="start" x="172" y="-180.8" font-family="Helvetica,sans-Serif" font-size="9.00">perspective&#45;camera.js</text>
</a>
</g>
</g>
<!-- core/scene/perspective&#45;camera.js&#45;&gt;core/scene/camera.js -->
<g id="edge30" class="edge">
<title>core/scene/perspective&#45;camera.js&#45;&gt;core/scene/camera.js</title>
<path fill="none" stroke="#000000" stroke-width="2" stroke-opacity="0.200000" d="M261.89,-173.99C269.11,-172.14 276.56,-170.11 283.5,-168 287.34,-166.83 291.35,-165.52 295.29,-164.16"/>
<polygon fill="#000000" fill-opacity="0.200000" stroke="#000000" stroke-width="2" stroke-opacity="0.200000" points="296.04,-166.12 301,-162.15 294.65,-162.16 296.04,-166.12"/>
</g>
<!-- core/scene/perspective&#45;camera.js&#45;&gt;core/math/matrix4.js -->
<g id="edge29" class="edge">
<title>core/scene/perspective&#45;camera.js&#45;&gt;core/math/matrix4.js</title>
<path fill="none" stroke="#000000" stroke-width="2" stroke-opacity="0.200000" d="M274.58,-192.02C277.77,-193.7 280.79,-195.67 283.5,-198 294.46,-207.41 284.46,-219.31 296,-228 309.13,-237.89 426.7,-242.83 443,-245 455.01,-246.6 468.1,-248.52 479.84,-250.3"/>
<polygon fill="#000000" fill-opacity="0.200000" stroke="#000000" stroke-width="2" stroke-opacity="0.200000" points="479.6,-252.39 485.84,-251.22 480.23,-248.23 479.6,-252.39"/>
</g>
<!-- core/scene/points.js -->
<g id="node21" class="node">
<title>core/scene/points.js</title>
<g id="a_node21"><a xlink:href="core/scene/points.js" xlink:title="points.js">
<path fill="#ffffcc" stroke="black" d="M243,-162C243,-162 201,-162 201,-162 198,-162 195,-159 195,-156 195,-156 195,-150 195,-150 195,-147 198,-144 201,-144 201,-144 243,-144 243,-144 246,-144 249,-147 249,-150 249,-150 249,-156 249,-156 249,-159 246,-162 243,-162"/>
<text text-anchor="start" x="203" y="-150.8" font-family="Helvetica,sans-Serif" font-size="9.00">points.js</text>
</a>
</g>
</g>
<!-- core/scene/points.js&#45;&gt;core/scene/mesh.js -->
<g id="edge31" class="edge">
<title>core/scene/points.js&#45;&gt;core/scene/mesh.js</title>
<path fill="none" stroke="#000000" stroke-width="2" stroke-opacity="0.200000" d="M249.07,-158.84C259.8,-161.4 272.32,-164.6 283.5,-168 287.34,-169.17 291.35,-170.48 295.29,-171.84"/>
<polygon fill="#000000" fill-opacity="0.200000" stroke="#000000" stroke-width="2" stroke-opacity="0.200000" points="294.65,-173.84 301,-173.85 296.04,-169.88 294.65,-173.84"/>
</g>
</g>
</svg>
